<svg width="834.1724609375px" height="122.021240234375px" xmlns="http://www.w3.org/2000/svg" viewBox="-167.08623046875 13.9893798828125 834.1724609375 122.021240234375" style="background:#fff" preserveAspectRatio="xMidYMid"><defs><filter id="editing-marble" x="-100%" y="-100%" width="300%" height="300%"><feFlood flood-color="#b44607" result="flood-1"></feFlood><feComposite operator="in" in="flood-1" in2="SourceAlpha" result="flood-2"></feComposite><feTurbulence baseFrequency="0.07" type="fractalNoise" numOctaves="1" seed="2" result="bs-1"></feTurbulence><feGaussianBlur stdDeviation="1" in="flood-2" result="bs-2"></feGaussianBlur><feDisplacementMap scale="110" in="bs-2" in2="bs-1" result="bs-3"></feDisplacementMap><feComposite operator="in" in="bs-3" in2="SourceAlpha" result="texture"></feComposite><feMerge><feMergeNode in="SourceGraphic"></feMergeNode><feMergeNode in="texture"></feMergeNode></feMerge></filter></defs><g filter="url(#editing-marble)"><g transform="translate(-49.2000073492527, 98.9921875)"><path d="M30.21-33.92L30.21-33.92L30.21-33.92Q25.02-33.92 21.25-35.65L21.25-35.65L19.20-25.28L31.55-25.28L31.55-25.28Q31.55-21.89 29.86-19.74L29.86-19.74L29.86-19.74Q28.16-17.60 25.09-17.60L25.09-17.60L25.09-17.60Q21.76-17.60 18.69-18.82L18.69-18.82L18.69-18.82Q18.05-19.07 17.98-19.14L17.98-19.14L14.34 0L0.38 0L8.51-42.24L37.06-42.24L37.06-42.24Q37.06-38.34 35.23-36.13L35.23-36.13L35.23-36.13Q33.41-33.92 30.21-33.92ZM55.62-2.69L55.62-2.69L55.62-2.69Q52.54 1.28 44.93 1.28L44.93 1.28L44.93 1.28Q40.96 1.28 38.08-1.12L38.08-1.12L38.08-1.12Q35.20-3.52 35.20-6.98L35.20-6.98L35.20-6.98Q35.20-8.90 35.39-9.86L35.39-9.86L39.68-32.64L52.67-33.92L48-9.22L48-9.22Q47.74-7.81 47.74-6.98L47.74-6.98L47.74-6.98Q47.74-3.26 49.98-3.26L49.98-3.26L49.98-3.26Q52.48-3.26 54.27-6.66L54.27-6.66L54.27-6.66Q54.85-7.74 55.10-9.15L55.10-9.15L59.65-32.64L72.26-33.92L67.52-8.96L67.52-8.96Q67.33-8 67.33-6.98L67.33-6.98L67.33-6.98Q67.33-5.95 67.90-4.83L67.90-4.83L67.90-4.83Q68.48-3.71 70.34-3.46L70.34-3.46L70.34-3.46Q69.95-1.92 68.61-0.90L68.61-0.90L68.61-0.90Q65.79 1.28 62.75 1.28L62.75 1.28L62.75 1.28Q59.71 1.28 57.92 0.19L57.92 0.19L57.92 0.19Q56.13-0.90 55.62-2.69ZM95.74-17.98L95.74-17.98L95.74-17.98Q98.05-22.08 98.05-26.24L98.05-26.24L98.05-26.24Q98.05-28.99 96.06-28.99L96.06-28.99L96.06-28.99Q94.53-28.99 92.93-26.37L92.93-26.37L92.93-26.37Q91.26-23.74 90.75-20.35L90.75-20.35L87.42 0L74.18 1.28L80.70-32.64L91.26-33.92L90.11-27.46L90.11-27.46Q93.25-33.92 100.29-33.92L100.29-33.92L100.29-33.92Q104-33.92 106.02-32L106.02-32L106.02-32Q108.03-30.08 108.03-26.14L108.03-26.14L108.03-26.14Q108.03-22.21 105.44-19.71L105.44-19.71L105.44-19.71Q102.85-17.22 98.43-17.22L98.43-17.22L98.43-17.22Q96.51-17.22 95.74-17.98ZM136.13 1.28L136.13 1.28L136.13 1.28Q128.38 1.28 128.38-4.74L128.38-4.74L128.38-4.74Q128.45-6.40 128.96-9.22L128.96-9.22L130.11-15.10L130.11-15.10Q131.84-23.42 131.84-25.28L131.84-25.28L131.84-25.28Q131.84-28.99 129.66-28.99L129.66-28.99L129.66-28.99Q126.02-28.99 124.10-19.46L124.10-19.46L120.32 0L107.46 1.28L114.11-32.70L124.61-33.92L123.58-27.65L123.58-27.65Q126.59-33.92 135.81-33.92L135.81-33.92L135.81-33.92Q140.29-33.92 142.18-32.03L142.18-32.03L142.18-32.03Q144.06-30.14 144.06-25.92L144.06-25.92L144.06-25.92Q144.06-21.95 142.02-12.67L142.02-12.67L142.02-12.67Q141.06-8.51 141.06-6.94L141.06-6.94L141.06-6.94Q141.06-5.38 141.92-4.48L141.92-4.48L141.92-4.48Q142.78-3.58 144.06-3.46L144.06-3.46L144.06-3.46Q143.42-1.28 141.22 0L141.22 0L141.22 0Q139.01 1.28 136.13 1.28ZM164.54-3.52L164.54-3.52L164.54-3.52Q162.56 1.28 156.22 1.28L156.22 1.28L156.22 1.28Q152.96 1.28 150.91-0.96L150.91-0.96L150.91-0.96Q149.18-2.94 149.18-4.93L149.18-4.93L149.18-4.93Q149.18-10.11 151.55-20.22L151.55-20.22L153.92-32.64L166.91-33.92L163.01-13.70L163.01-13.70Q161.92-8.96 161.92-7.30L161.92-7.30L161.92-7.30Q161.92-3.65 164.54-3.52ZM155.07-41.54L155.07-41.54L155.07-41.54Q155.07-44.03 157.15-45.38L157.15-45.38L157.15-45.38Q159.23-46.72 162.24-46.72L162.24-46.72L162.24-46.72Q165.25-46.72 167.07-45.38L167.07-45.38L167.07-45.38Q168.90-44.03 168.90-41.54L168.90-41.54L168.90-41.54Q168.90-39.04 166.88-37.76L166.88-37.76L166.88-37.76Q164.86-36.48 161.86-36.48L161.86-36.48L161.86-36.48Q158.85-36.48 156.96-37.76L156.96-37.76L156.96-37.76Q155.07-39.04 155.07-41.54ZM171.01-6.40L171.01-6.40L171.01-6.40Q171.01-8.13 171.90-12.48L171.90-12.48L175.30-29.76L171.52-29.76L171.78-31.68L171.78-31.68Q179.46-33.98 186.88-39.62L186.88-39.62L189.95-39.62L188.42-32.64L193.41-32.64L192.83-29.76L187.90-29.76L184.64-12.48L184.64-12.48Q183.81-8.51 183.81-7.17L183.81-7.17L183.81-7.17Q183.81-4.10 186.50-3.46L186.50-3.46L186.50-3.46Q185.86-1.28 183.55 0L183.55 0L183.55 0Q181.25 1.28 177.98 1.28L177.98 1.28L177.98 1.28Q174.72 1.28 172.86-0.77L172.86-0.77L172.86-0.77Q171.01-2.82 171.01-6.40ZM213.63-2.69L213.63-2.69L213.63-2.69Q210.56 1.28 202.94 1.28L202.94 1.28L202.94 1.28Q198.98 1.28 196.10-1.12L196.10-1.12L196.10-1.12Q193.22-3.52 193.22-6.98L193.22-6.98L193.22-6.98Q193.22-8.90 193.41-9.86L193.41-9.86L197.70-32.64L210.69-33.92L206.02-9.22L206.02-9.22Q205.76-7.81 205.76-6.98L205.76-6.98L205.76-6.98Q205.76-3.26 208-3.26L208-3.26L208-3.26Q210.50-3.26 212.29-6.66L212.29-6.66L212.29-6.66Q212.86-7.74 213.12-9.15L213.12-9.15L217.66-32.64L230.27-33.92L225.54-8.96L225.54-8.96Q225.34-8 225.34-6.98L225.34-6.98L225.34-6.98Q225.34-5.95 225.92-4.83L225.92-4.83L225.92-4.83Q226.50-3.71 228.35-3.46L228.35-3.46L228.35-3.46Q227.97-1.92 226.62-0.90L226.62-0.90L226.62-0.90Q223.81 1.28 220.77 1.28L220.77 1.28L220.77 1.28Q217.73 1.28 215.94 0.19L215.94 0.19L215.94 0.19Q214.14-0.90 213.63-2.69ZM253.76-17.98L253.76-17.98L253.76-17.98Q256.06-22.08 256.06-26.24L256.06-26.24L256.06-26.24Q256.06-28.99 254.08-28.99L254.08-28.99L254.08-28.99Q252.54-28.99 250.94-26.37L250.94-26.37L250.94-26.37Q249.28-23.74 248.77-20.35L248.77-20.35L245.44 0L232.19 1.28L238.72-32.64L249.28-33.92L248.13-27.46L248.13-27.46Q251.26-33.92 258.30-33.92L258.30-33.92L258.30-33.92Q262.02-33.92 264.03-32L264.03-32L264.03-32Q266.05-30.08 266.05-26.14L266.05-26.14L266.05-26.14Q266.05-22.21 263.46-19.71L263.46-19.71L263.46-19.71Q260.86-17.22 256.45-17.22L256.45-17.22L256.45-17.22Q254.53-17.22 253.76-17.98ZM292.99-10.82L292.99-10.82L292.99-10.82Q294.59-9.73 294.59-7.33L294.59-7.33L294.59-7.33Q294.59-4.93 293.38-3.39L293.38-3.39L293.38-3.39Q292.16-1.86 290.18-0.83L290.18-0.83L290.18-0.83Q286.08 1.28 281.66 1.28L281.66 1.28L281.66 1.28Q277.25 1.28 274.66 0.32L274.66 0.32L274.66 0.32Q272.06-0.64 270.34-2.43L270.34-2.43L270.34-2.43Q266.94-5.82 266.94-12.03L266.94-12.03L266.94-12.03Q266.94-21.70 272.19-27.58L272.19-27.58L272.19-27.58Q277.82-33.92 287.62-33.92L287.62-33.92L287.62-33.92Q293.70-33.92 296.70-31.36L296.70-31.36L296.70-31.36Q298.94-29.44 298.94-26.30L298.94-26.30L298.94-26.30Q298.94-15.04 279.49-15.04L279.49-15.04L279.49-15.04Q279.23-13.38 279.23-11.97L279.23-11.97L279.23-11.97Q279.23-9.02 280.54-7.90L280.54-7.90L280.54-7.90Q281.86-6.78 284.29-6.78L284.29-6.78L284.29-6.78Q286.72-6.78 289.31-7.90L289.31-7.90L289.31-7.90Q291.90-9.02 292.99-10.82ZM279.94-17.79L279.94-17.79L279.94-17.79Q284.48-17.79 287.10-20.61L287.10-20.61L287.10-20.61Q289.73-23.30 289.73-27.58L289.73-27.58L289.73-27.58Q289.73-29.06 289.18-29.86L289.18-29.86L289.18-29.86Q288.64-30.66 287.55-30.66L287.55-30.66L287.55-30.66Q286.46-30.66 285.54-30.24L285.54-30.24L285.54-30.24Q284.61-29.82 283.65-28.42L283.65-28.42L283.65-28.42Q281.28-25.22 279.94-17.79ZM343.42-33.92L343.42-33.92L343.42-33.92Q338.24-33.92 334.46-35.65L334.46-35.65L332.42-25.28L344.77-25.28L344.77-25.28Q344.77-21.89 343.07-19.74L343.07-19.74L343.07-19.74Q341.38-17.60 338.30-17.60L338.30-17.60L338.30-17.60Q334.98-17.60 331.90-18.82L331.90-18.82L331.90-18.82Q331.26-19.07 331.20-19.14L331.20-19.14L327.55 0L313.60 0L321.73-42.24L350.27-42.24L350.27-42.24Q350.27-38.34 348.45-36.13L348.45-36.13L348.45-36.13Q346.62-33.92 343.42-33.92ZM351.01-1.92L351.01-1.92L351.01-1.92Q349.50-3.58 348.83-6.21L348.83-6.21L348.83-6.21Q348.16-8.83 348.16-13.12L348.16-13.12L348.16-13.12Q348.16-17.41 349.63-21.31L349.63-21.31L349.63-21.31Q351.10-25.22 353.79-28.03L353.79-28.03L353.79-28.03Q359.30-33.92 368.38-33.92L368.38-33.92L368.38-33.92Q371.65-33.92 374.02-32.83L374.02-32.83L384.96-33.92L380.22-8.96L380.22-8.96Q380.03-8.19 380.03-6.78L380.03-6.78L380.03-6.78Q380.03-5.38 380.90-4.48L380.90-4.48L380.90-4.48Q381.76-3.58 383.04-3.46L383.04-3.46L383.04-3.46Q382.40-1.28 380.06 0L380.06 0L380.06 0Q377.73 1.28 375.10 1.28L375.10 1.28L375.10 1.28Q372.48 1.28 370.72 0.29L370.72 0.29L370.72 0.29Q368.96-0.70 368.45-2.37L368.45-2.37L368.45-2.37Q367.42-0.77 365.25 0.26L365.25 0.26L365.25 0.26Q363.07 1.28 360.16 1.28L360.16 1.28L360.16 1.28Q357.25 1.28 354.88 0.51L354.88 0.51L354.88 0.51Q352.51-0.26 351.01-1.92ZM364.51-27.90L364.51-27.90L364.51-27.90Q363.78-26.75 363.14-24.80L363.14-24.80L363.14-24.80Q362.50-22.85 361.44-17.63L361.44-17.63L361.44-17.63Q360.38-12.42 360.38-8.70L360.38-8.70L360.38-8.70Q360.38-4.99 360.96-3.90L360.96-3.90L360.96-3.90Q361.54-2.82 362.56-2.82L362.56-2.82L362.56-2.82Q364.61-2.82 366.11-4.77L366.11-4.77L366.11-4.77Q367.62-6.72 368.19-10.18L368.19-10.18L371.58-28.93L371.58-28.93Q370.24-30.08 368.67-30.08L368.67-30.08L368.67-30.08Q367.10-30.08 366.18-29.57L366.18-29.57L366.18-29.57Q365.25-29.06 364.51-27.90ZM415.49 1.28L415.49 1.28L415.49 1.28Q407.74 1.28 407.74-4.74L407.74-4.74L407.74-4.74Q407.81-6.40 408.32-9.22L408.32-9.22L409.47-15.10L409.47-15.10Q411.20-23.42 411.20-25.28L411.20-25.28L411.20-25.28Q411.20-28.99 409.02-28.99L409.02-28.99L409.02-28.99Q405.38-28.99 403.46-19.46L403.46-19.46L399.68 0L386.82 1.28L393.47-32.70L403.97-33.92L402.94-27.65L402.94-27.65Q405.95-33.92 415.17-33.92L415.17-33.92L415.17-33.92Q419.65-33.92 421.54-32.03L421.54-32.03L421.54-32.03Q423.42-30.14 423.42-25.92L423.42-25.92L423.42-25.92Q423.42-21.95 421.38-12.67L421.38-12.67L421.38-12.67Q420.42-8.51 420.42-6.94L420.42-6.94L420.42-6.94Q420.42-5.38 421.28-4.48L421.28-4.48L421.28-4.48Q422.14-3.58 423.42-3.46L423.42-3.46L423.42-3.46Q422.78-1.28 420.58 0L420.58 0L420.58 0Q418.37 1.28 415.49 1.28ZM429.57-6.40L429.57-6.40L429.57-6.40Q429.57-8.13 430.46-12.48L430.46-12.48L433.86-29.76L430.08-29.76L430.34-31.68L430.34-31.68Q438.02-33.98 445.44-39.62L445.44-39.62L448.51-39.62L446.98-32.64L451.97-32.64L451.39-29.76L446.46-29.76L443.20-12.48L443.20-12.48Q442.37-8.51 442.37-7.17L442.37-7.17L442.37-7.17Q442.37-4.10 445.06-3.46L445.06-3.46L445.06-3.46Q444.42-1.28 442.11 0L442.11 0L442.11 0Q439.81 1.28 436.54 1.28L436.54 1.28L436.54 1.28Q433.28 1.28 431.42-0.77L431.42-0.77L431.42-0.77Q429.57-2.82 429.57-6.40ZM454.18-1.92L454.18-1.92L454.18-1.92Q452.67-3.58 452.00-6.21L452.00-6.21L452.00-6.21Q451.33-8.83 451.33-13.12L451.33-13.12L451.33-13.12Q451.33-17.41 452.80-21.31L452.80-21.31L452.80-21.31Q454.27-25.22 456.96-28.03L456.96-28.03L456.96-28.03Q462.46-33.92 471.55-33.92L471.55-33.92L471.55-33.92Q474.82-33.92 477.18-32.83L477.18-32.83L488.13-33.92L483.39-8.96L483.39-8.96Q483.20-8.19 483.20-6.78L483.20-6.78L483.20-6.78Q483.20-5.38 484.06-4.48L484.06-4.48L484.06-4.48Q484.93-3.58 486.21-3.46L486.21-3.46L486.21-3.46Q485.57-1.28 483.23 0L483.23 0L483.23 0Q480.90 1.28 478.27 1.28L478.27 1.28L478.27 1.28Q475.65 1.28 473.89 0.29L473.89 0.29L473.89 0.29Q472.13-0.70 471.62-2.37L471.62-2.37L471.62-2.37Q470.59-0.77 468.42 0.26L468.42 0.26L468.42 0.26Q466.24 1.28 463.33 1.28L463.33 1.28L463.33 1.28Q460.42 1.28 458.05 0.51L458.05 0.51L458.05 0.51Q455.68-0.26 454.18-1.92ZM467.68-27.90L467.68-27.90L467.68-27.90Q466.94-26.75 466.30-24.80L466.30-24.80L466.30-24.80Q465.66-22.85 464.61-17.63L464.61-17.63L464.61-17.63Q463.55-12.42 463.55-8.70L463.55-8.70L463.55-8.70Q463.55-4.99 464.13-3.90L464.13-3.90L464.13-3.90Q464.70-2.82 465.73-2.82L465.73-2.82L465.73-2.82Q467.78-2.82 469.28-4.77L469.28-4.77L469.28-4.77Q470.78-6.72 471.36-10.18L471.36-10.18L474.75-28.93L474.75-28.93Q473.41-30.08 471.84-30.08L471.84-30.08L471.84-30.08Q470.27-30.08 469.34-29.57L469.34-29.57L469.34-29.57Q468.42-29.06 467.68-27.90ZM510.72-22.46L510.72-22.46L510.72-22.46Q511.62-24.83 511.62-26.88L511.62-26.88L511.62-26.88Q511.62-30.66 508.54-30.66L508.54-30.66L508.54-30.66Q506.94-30.66 505.63-29.22L505.63-29.22L505.63-29.22Q504.32-27.78 504.32-25.98L504.32-25.98L504.32-25.98Q504.32-24.70 505.34-23.68L505.34-23.68L505.34-23.68Q506.82-22.27 510.59-19.97L510.59-19.97L510.59-19.97Q514.37-17.66 515.81-15.78L515.81-15.78L515.81-15.78Q517.25-13.89 517.25-11.30L517.25-11.30L517.25-11.30Q517.25-8.70 516-6.34L516-6.34L516-6.34Q514.75-3.97 512.51-2.30L512.51-2.30L512.51-2.30Q507.71 1.28 500.03 1.28L500.03 1.28L500.03 1.28Q495.87 1.28 492.67-0.90L492.67-0.90L492.67-0.90Q489.47-3.01 489.47-5.50L489.47-5.50L489.47-5.50Q489.47-8 491.30-9.47L491.30-9.47L491.30-9.47Q493.12-10.94 495.81-10.94L495.81-10.94L495.81-10.94Q498.50-10.94 500.16-9.92L500.16-9.92L500.16-9.92Q499.33-7.81 499.33-6.40L499.33-6.40L499.33-6.40Q499.33-2.18 502.91-2.18L502.91-2.18L502.91-2.18Q504.45-2.18 505.47-3.14L505.47-3.14L505.47-3.14Q506.50-4.10 506.50-5.76L506.50-5.76L506.50-5.76Q506.50-9.02 500.99-12.48L500.99-12.48L500.99-12.48Q496.51-15.42 495.49-16.58L495.49-16.58L495.49-16.58Q493.76-18.62 493.76-21.18L493.76-21.18L493.76-21.18Q493.76-23.74 494.98-26.18L494.98-26.18L494.98-26.18Q496.19-28.61 498.43-30.34L498.43-30.34L498.43-30.34Q503.10-33.92 511.23-33.92L511.23-33.92L511.23-33.92Q515.39-33.92 517.86-32.26L517.86-32.26L517.86-32.26Q520.32-30.59 520.32-27.78L520.32-27.78L520.32-27.78Q520.32-24.96 518.62-23.36L518.62-23.36L518.62-23.36Q516.93-21.76 513.86-21.76L513.86-21.76L513.86-21.76Q511.74-21.76 510.72-22.46ZM523.71-6.40L523.71-6.40L523.71-6.40Q523.71-8.13 524.61-12.48L524.61-12.48L528-29.76L524.22-29.76L524.48-31.68L524.48-31.68Q532.16-33.98 539.58-39.62L539.58-39.62L542.66-39.62L541.12-32.64L546.11-32.64L545.54-29.76L540.61-29.76L537.34-12.48L537.34-12.48Q536.51-8.51 536.51-7.17L536.51-7.17L536.51-7.17Q536.51-4.10 539.20-3.46L539.20-3.46L539.20-3.46Q538.56-1.28 536.26 0L536.26 0L536.26 0Q533.95 1.28 530.69 1.28L530.69 1.28L530.69 1.28Q527.42 1.28 525.57-0.77L525.57-0.77L525.57-0.77Q523.71-2.82 523.71-6.40ZM561.15-3.52L561.15-3.52L561.15-3.52Q559.17 1.28 552.83 1.28L552.83 1.28L552.83 1.28Q549.57 1.28 547.52-0.96L547.52-0.96L547.52-0.96Q545.79-2.94 545.79-4.93L545.79-4.93L545.79-4.93Q545.79-10.11 548.16-20.22L548.16-20.22L550.53-32.64L563.52-33.92L559.62-13.70L559.62-13.70Q558.53-8.96 558.53-7.30L558.53-7.30L558.53-7.30Q558.53-3.65 561.15-3.52ZM551.68-41.54L551.68-41.54L551.68-41.54Q551.68-44.03 553.76-45.38L553.76-45.38L553.76-45.38Q555.84-46.72 558.85-46.72L558.85-46.72L558.85-46.72Q561.86-46.72 563.68-45.38L563.68-45.38L563.68-45.38Q565.50-44.03 565.50-41.54L565.50-41.54L565.50-41.54Q565.50-39.04 563.49-37.76L563.49-37.76L563.49-37.76Q561.47-36.48 558.46-36.48L558.46-36.48L558.46-36.48Q555.46-36.48 553.57-37.76L553.57-37.76L553.57-37.76Q551.68-39.04 551.68-41.54ZM598.02-26.62L598.02-26.62L598.02-26.62Q598.02-23.94 595.78-22.27L595.78-22.27L595.78-22.27Q593.54-20.61 589.89-20.61L589.89-20.61L589.89-20.61Q588.35-20.61 587.46-21.06L587.46-21.06L587.46-21.06Q588.16-22.72 588.38-24.80L588.38-24.80L588.38-24.80Q588.61-26.88 588.61-27.46L588.61-27.46L588.61-27.46Q588.61-30.14 586.75-30.14L586.75-30.14L586.75-30.14Q585.47-30.14 584.03-28.54L584.03-28.54L584.03-28.54Q582.59-26.94 581.38-24.45L581.38-24.45L581.38-24.45Q578.69-18.69 578.69-12.86L578.69-12.86L578.69-12.86Q578.69-9.66 579.90-8.22L579.90-8.22L579.90-8.22Q581.12-6.78 583.81-6.78L583.81-6.78L583.81-6.78Q587.52-6.78 590.46-9.86L590.46-9.86L590.46-9.86Q591.30-10.82 591.74-11.90L591.74-11.90L591.74-11.90Q594.18-10.62 594.18-7.10L594.18-7.10L594.18-7.10Q594.18-3.52 590.21-1.15L590.21-1.15L590.21-1.15Q586.11 1.28 579.58 1.28L579.58 1.28L579.58 1.28Q566.59 1.28 566.59-12.48L566.59-12.48L566.59-12.48Q566.59-22.53 572.29-28.29L572.29-28.29L572.29-28.29Q577.79-33.92 587.90-33.92L587.90-33.92L587.90-33.92Q598.02-33.92 598.02-26.62Z" fill="#e49c49"></path></g></g><style>text {
  font-size: 64px;
  font-family: Arial Black;
  dominant-baseline: central;
  text-anchor: middle;
}</style></svg>